<svg width="50" height="50" viewBox="0 0 50 50" fill="none" xmlns="http://www.w3.org/2000/svg">
<g filter="url(#filter0_dd)">
<circle cx="25" cy="25" r="20" fill="white"/>
</g>
<g clip-path="url(#clip0)">
<rect width="15.75" height="18" transform="translate(17 16)" fill="white"/>
<path d="M20.5255 31.7504H17.2602V21.2352H20.5255V31.7504ZM18.8911 19.8008C17.8469 19.8008 17 18.936 17 17.8918C17 17.3903 17.1992 16.9093 17.5539 16.5547C17.9085 16.2 18.3895 16.0008 18.8911 16.0008C19.3926 16.0008 19.8736 16.2 20.2282 16.5547C20.5829 16.9093 20.7821 17.3903 20.7821 17.8918C20.7821 18.936 19.9348 19.8008 18.8911 19.8008ZM32.7465 31.7504H29.4882V26.6317C29.4882 25.4118 29.4636 23.8473 27.7905 23.8473C26.0928 23.8473 25.8327 25.1727 25.8327 26.5438V31.7504H22.5709V21.2352H25.7026V22.6696H25.7483C26.1842 21.8434 27.2491 20.9715 28.8378 20.9715C32.1425 20.9715 32.75 23.1477 32.75 25.9743V31.7504H32.7465Z" fill="#5928E5" fill-opacity="0.8"/>
</g>
<defs>
<filter id="filter0_dd" x="3" y="5" width="44" height="44" filterUnits="userSpaceOnUse" color-interpolation-filters="sRGB">
<feFlood flood-opacity="0" result="BackgroundImageFix"/>
<feColorMatrix in="SourceAlpha" type="matrix" values="0 0 0 0 0 0 0 0 0 0 0 0 0 0 0 0 0 0 127 0"/>
<feOffset dy="2"/>
<feGaussianBlur stdDeviation="1"/>
<feColorMatrix type="matrix" values="0 0 0 0 0.34902 0 0 0 0 0.156863 0 0 0 0 0.898039 0 0 0 0.1 0"/>
<feBlend mode="normal" in2="BackgroundImageFix" result="effect1_dropShadow"/>
<feColorMatrix in="SourceAlpha" type="matrix" values="0 0 0 0 0 0 0 0 0 0 0 0 0 0 0 0 0 0 127 0"/>
<feOffset dy="1"/>
<feGaussianBlur stdDeviation="0.5"/>
<feColorMatrix type="matrix" values="0 0 0 0 0.34902 0 0 0 0 0.156863 0 0 0 0 0.898039 0 0 0 0.2 0"/>
<feBlend mode="normal" in2="effect1_dropShadow" result="effect2_dropShadow"/>
<feBlend mode="normal" in="SourceGraphic" in2="effect2_dropShadow" result="shape"/>
</filter>
<clipPath id="clip0">
<rect width="15.75" height="18" fill="white" transform="translate(17 16)"/>
</clipPath>
</defs>
</svg>
