<svg width="50" height="50" viewBox="0 0 50 50" fill="none" xmlns="http://www.w3.org/2000/svg">
<g filter="url(#filter0_dd)">
<circle cx="25" cy="25" r="20" fill="white"/>
</g>
<g clip-path="url(#clip0)">
<rect width="15.75" height="18" transform="translate(17 16)" fill="white"/>
<path d="M24.8785 20.957C22.6425 20.957 20.839 22.7605 20.839 24.9965C20.839 27.2324 22.6425 29.0359 24.8785 29.0359C27.1144 29.0359 28.9179 27.2324 28.9179 24.9965C28.9179 22.7605 27.1144 20.957 24.8785 20.957ZM24.8785 27.6227C23.4335 27.6227 22.2523 26.4449 22.2523 24.9965C22.2523 23.548 23.43 22.3703 24.8785 22.3703C26.3269 22.3703 27.5046 23.548 27.5046 24.9965C27.5046 26.4449 26.3234 27.6227 24.8785 27.6227ZM30.0253 20.7918C30.0253 21.3156 29.6035 21.734 29.0831 21.734C28.5593 21.734 28.141 21.3121 28.141 20.7918C28.141 20.2715 28.5628 19.8496 29.0831 19.8496C29.6035 19.8496 30.0253 20.2715 30.0253 20.7918ZM32.7007 21.748C32.641 20.4859 32.3527 19.368 31.4281 18.4469C30.507 17.5258 29.389 17.2375 28.1269 17.1742C26.8261 17.1004 22.9273 17.1004 21.6265 17.1742C20.3679 17.234 19.2499 17.5223 18.3253 18.4434C17.4007 19.3644 17.116 20.4824 17.0527 21.7445C16.9789 23.0453 16.9789 26.9441 17.0527 28.2449C17.1125 29.507 17.4007 30.625 18.3253 31.5461C19.2499 32.4672 20.3644 32.7555 21.6265 32.8187C22.9273 32.8926 26.8261 32.8926 28.1269 32.8187C29.389 32.759 30.507 32.4707 31.4281 31.5461C32.3492 30.625 32.6374 29.507 32.7007 28.2449C32.7745 26.9441 32.7745 23.0488 32.7007 21.748ZM31.0203 29.6406C30.746 30.3297 30.2152 30.8605 29.5226 31.1383C28.4855 31.5496 26.0246 31.4547 24.8785 31.4547C23.7324 31.4547 21.2679 31.5461 20.2343 31.1383C19.5453 30.8641 19.0144 30.3332 18.7367 29.6406C18.3253 28.6035 18.4203 26.1426 18.4203 24.9965C18.4203 23.8504 18.3289 21.3859 18.7367 20.3523C19.0109 19.6633 19.5417 19.1324 20.2343 18.8547C21.2714 18.4434 23.7324 18.5383 24.8785 18.5383C26.0246 18.5383 28.489 18.4469 29.5226 18.8547C30.2117 19.1289 30.7425 19.6598 31.0203 20.3523C31.4316 21.3894 31.3367 23.8504 31.3367 24.9965C31.3367 26.1426 31.4316 28.607 31.0203 29.6406Z" fill="#5928E5" fill-opacity="0.8"/>
</g>
<defs>
<filter id="filter0_dd" x="3" y="5" width="44" height="44" filterUnits="userSpaceOnUse" color-interpolation-filters="sRGB">
<feFlood flood-opacity="0" result="BackgroundImageFix"/>
<feColorMatrix in="SourceAlpha" type="matrix" values="0 0 0 0 0 0 0 0 0 0 0 0 0 0 0 0 0 0 127 0"/>
<feOffset dy="1"/>
<feGaussianBlur stdDeviation="0.5"/>
<feColorMatrix type="matrix" values="0 0 0 0 0.34902 0 0 0 0 0.156863 0 0 0 0 0.898039 0 0 0 0.2 0"/>
<feBlend mode="normal" in2="BackgroundImageFix" result="effect1_dropShadow"/>
<feColorMatrix in="SourceAlpha" type="matrix" values="0 0 0 0 0 0 0 0 0 0 0 0 0 0 0 0 0 0 127 0"/>
<feOffset dy="2"/>
<feGaussianBlur stdDeviation="1"/>
<feColorMatrix type="matrix" values="0 0 0 0 0.34902 0 0 0 0 0.156863 0 0 0 0 0.898039 0 0 0 0.1 0"/>
<feBlend mode="normal" in2="effect1_dropShadow" result="effect2_dropShadow"/>
<feBlend mode="normal" in="SourceGraphic" in2="effect2_dropShadow" result="shape"/>
</filter>
<clipPath id="clip0">
<rect width="15.75" height="18" fill="white" transform="translate(17 16)"/>
</clipPath>
</defs>
</svg>
